# xmcd
#
# Track frame offsets:
#	180
#	17402
#	33597
#	47619
#	58889
#	68784
#	90515
#	105137
#	118488
#	132304
#	142722
#
# Disc length: 2102 seconds
#
# Revision: 1
# Processed by: cddbd v1.5.1PL2 Copyright (c) Steve Scherf et al.
# Submitted via: audiograbber 1.83.01
#
DISCID=8d08340b
DTITLE=Conquerer Worm - Ride On
DYEAR=1900
DGENRE=
TTITLE0=Ride On Angel
TTITLE1=Big City Blues
TTITLE2=Hot Summer Nights
TTITLE3=Wolfpack Rides The Night
TTITLE4=Captain Howdy
TTITLE5=Good Times They Come - Waltz For Jaded Lovers
TTITLE6=Voodoo Woman
TTITLE7=Sugaranne
TTITLE8=I Should Have Married Peggy Sue
TTITLE9=Mama Tried
TTITLE10=Southern Girls
EXTD=
EXTT0=
EXTT1=
EXTT2=
EXTT3=
EXTT4=
EXTT5=
EXTT6=
EXTT7=
EXTT8=
EXTT9=
EXTT10=
PLAYORDER=
